<?xml version="1.0" standalone="no"?>
<!DOCTYPE svg PUBLIC "-//W3C//DTD SVG 20010904//EN"
 "http://www.w3.org/TR/2001/REC-SVG-20010904/DTD/svg10.dtd">
<svg version="1.0" xmlns="http://www.w3.org/2000/svg"
 width="500.000000pt" height="500.000000pt" viewBox="0 0 500.000000 500.000000"
 preserveAspectRatio="xMidYMid meet">
<metadata>
Created by potrace 1.14, written by Peter Selinger 2001-2017
</metadata>
<g transform="translate(0.000000,500.000000) scale(0.100000,-0.100000)"
fill="#000000" stroke="none">
<path d="M2405 4125 c-49 -24 -155 -70 -235 -103 -449 -184 -793 -273 -1106
-285 -30 -1 -50 -6 -48 -12 1 -5 5 -30 8 -55 2 -25 18 -124 35 -220 16 -96 32
-191 36 -210 3 -19 13 -73 21 -120 9 -47 18 -96 20 -110 3 -14 12 -59 21 -100
8 -41 17 -86 19 -100 19 -112 107 -464 149 -600 15 -47 52 -148 82 -225 199
-507 498 -833 1023 -1118 l66 -35 54 27 c30 15 74 39 97 54 24 15 45 27 48 27
11 0 181 114 257 171 184 141 363 339 481 534 31 52 144 287 170 355 42 107
113 328 132 410 2 8 17 71 34 140 17 69 34 137 36 152 3 16 12 56 20 91 8 34
17 80 20 102 4 22 8 47 10 55 2 8 7 29 10 45 2 17 7 41 10 55 3 14 7 39 10 55
3 17 10 53 15 80 5 28 12 67 16 89 5 37 7 47 18 106 3 14 7 41 10 60 3 19 14
88 26 153 11 66 20 124 20 131 0 7 -20 12 -52 13 -50 2 -99 7 -208 19 -275 32
-735 182 -1142 373 -48 23 -89 41 -90 40 -2 0 -43 -20 -93 -44z"/>
</g>
</svg>
